<?xml version="1.0" encoding="UTF-8"?>
<svg version="1.1" xmlns="http://www.w3.org/2000/svg" viewBox="0 0 500 500">
<path d="M0 0 C18.37865565 4.59466391 18.37865565 4.59466391 24.66137695 6.375 C25.39443558 6.58064072 26.1274942 6.78628143 26.88276672 6.99815369 C29.25187847 7.66329848 31.62007815 8.33162806 33.98828125 9 C35.70080206 9.48141307 37.41338402 9.96260864 39.12602234 10.44360352 C43.61934758 11.7061149 48.11192205 12.97127641 52.60430908 14.23712158 C57.91366421 15.73272974 63.22380938 17.22552947 68.53393078 18.71841431 C72.70169375 19.89014771 76.86934209 21.06227854 81.03645325 22.23632812 C101.01445116 27.85979369 121.0093009 33.42120025 141 39 C141 104.67 141 170.34 141 238 C125.41646584 229.49989046 109.85481992 220.95014194 94.58764648 211.890625 C88.23502617 208.12341743 81.83829443 204.434654 75.4375 200.75 C66.94343768 195.85854715 58.46228812 190.9462225 50 186 C40.37935097 180.37720995 30.7351847 174.79627321 21.078125 169.23632812 C19.05706574 168.07241453 17.04440326 166.89378131 15.04101562 165.69970703 C11.99068375 163.92498533 11.99068375 163.92498533 8.56835938 162.53076172 C5.1095359 160.938629 2.71973689 159.67185227 0 157 C-0.39419058 154.16871148 -0.50658677 152.04030413 -0.32714844 149.25024414 C-0.2917244 148.20414349 -0.2917244 148.20414349 -0.25558472 147.13690948 C-0.19416059 145.42358892 -0.100278 143.71148608 0 142 C0.86808289 141.99191315 1.73616577 141.98382629 2.6305542 141.97549438 C10.81161218 141.89755215 18.99250552 141.81026253 27.17335129 141.71247292 C31.37920585 141.66252804 35.58503551 141.61619787 39.79101562 141.578125 C43.85005664 141.54124929 47.90888846 141.49488319 51.96775055 141.44193649 C53.51625143 141.42340468 55.06479713 141.40829221 56.61336517 141.39665604 C58.7825004 141.37977263 60.9511578 141.35073331 63.12011719 141.31884766 C64.35477722 141.30552399 65.58943726 141.29220032 66.86151123 141.2784729 C69.84022071 141.01417695 71.54537225 140.66157935 74 139 C75.50934217 135.98131566 75.17510672 133.32702771 75 130 C73.27773504 126.75150023 73.27773504 126.75150023 70 126 C67.32384008 125.89534247 64.67264728 125.84590851 61.99609375 125.84228516 C61.18117462 125.83720444 60.36625549 125.83212372 59.52664185 125.82688904 C57.75712153 125.81618944 55.98758771 125.80756765 54.2180481 125.80076981 C51.4193004 125.78898587 48.62070736 125.76953589 45.82202148 125.74765015 C37.86479815 125.68600563 29.90759183 125.6319213 21.95019531 125.59863281 C17.08368324 125.57772533 12.21745499 125.54245755 7.35110474 125.49787521 C5.49475436 125.48368752 3.6383538 125.47498655 1.7819519 125.47182083 C-0.81103376 125.4669296 -3.40326132 125.44381998 -5.99609375 125.41650391 C-7.15103836 125.42101311 -7.15103836 125.42101311 -8.32931519 125.4256134 C-13.47970978 125.34475424 -13.47970978 125.34475424 -15.97290039 123.69271851 C-17.74831005 120.76674252 -17.41342778 118.30742221 -17 115 C-14.14391138 112.19053571 -12.03844167 111.62089727 -8.09545898 111.58349609 C-7.12442734 111.56692963 -6.15339569 111.55036316 -5.15293884 111.53329468 C-4.11117996 111.53004181 -3.06942108 111.52678894 -1.99609375 111.5234375 C-0.92126236 111.50785797 0.15356903 111.49227844 1.26097107 111.47622681 C4.69480667 111.42869417 8.12843911 111.40094101 11.5625 111.375 C14.9999879 111.33851015 18.43736071 111.29788592 21.8747406 111.25234985 C24.01372051 111.2251293 26.1527846 111.2037754 28.29188538 111.18881226 C29.74370461 111.17341904 29.74370461 111.17341904 31.22485352 111.15771484 C32.0766066 111.15121918 32.92835968 111.14472351 33.80592346 111.13803101 C36.17840662 111.08277514 36.17840662 111.08277514 39 110 C40.0812391 103.93949386 40.0812391 103.93949386 39 98 C35.56277765 96.952041 32.40968059 96.87553502 28.82617188 96.87402344 C27.57807739 96.87021667 26.32998291 96.86640991 25.04406738 96.86248779 C24.04809288 96.862197 24.04809288 96.862197 23.03199768 96.86190033 C20.23097312 96.85847199 17.43017805 96.83709895 14.62923431 96.81666946 C9.41896889 96.77869643 4.20895498 96.74738912 -1.00146484 96.74951172 C-4.63092666 96.75029855 -8.25953877 96.72695567 -11.88877869 96.6876297 C-13.26981283 96.67716909 -14.65094502 96.67564628 -16.03199768 96.68328094 C-17.96341054 96.69289678 -19.89490212 96.66895547 -21.82617188 96.64355469 C-23.47353333 96.63808624 -23.47353333 96.63808624 -25.1541748 96.63250732 C-28 96 -28 96 -30.38977051 93.65899658 C-32 91 -32 91 -31.9375 87.8125 C-31 85 -31 85 -28 83 C-25.39417623 82.80256313 -22.8936002 82.71977252 -20.28735352 82.72875977 C-19.50330139 82.72353302 -18.71924927 82.71830627 -17.91143799 82.71292114 C-16.20904607 82.70268011 -14.50662283 82.69690056 -12.80420113 82.69503975 C-10.11011719 82.69138073 -7.4164029 82.67466737 -4.72239685 82.65428162 C2.93703342 82.59882189 10.59651821 82.56816755 18.25610352 82.54370117 C22.94105645 82.52783352 27.62574695 82.49762317 32.31056404 82.45893669 C34.09631631 82.44727976 35.8821155 82.44135628 37.66790581 82.44125557 C40.16486921 82.44106369 42.66110802 82.42281037 45.15795898 82.40063477 C45.89627457 82.40521194 46.63459015 82.40978912 47.39527893 82.414505 C50.52628571 82.37025865 52.68432256 82.17843274 55.43544006 80.62339783 C57.54501615 78.43448761 57.85607614 77.02240108 58 74 C57.50845917 71.27102833 57.50845917 71.27102833 56 69 C52.57439085 67.29867847 49.77800435 66.7489857 45.97714233 66.74171448 C44.49665154 66.73147247 44.49665154 66.73147247 42.98625183 66.72102356 C41.91490494 66.72357651 40.84355804 66.72612946 39.73974609 66.72875977 C38.60266708 66.72353302 37.46558807 66.71830627 36.29405212 66.71292114 C33.82775629 66.70268721 31.36143889 66.6969018 28.89512253 66.69503975 C24.99562199 66.69138015 21.09637667 66.67466601 17.19692993 66.65428162 C7.51510467 66.60515659 -2.16676824 66.57417989 -11.84869385 66.55297852 C-20.03416577 66.5350307 -28.21940428 66.5057093 -36.40476608 66.45893669 C-38.99239547 66.44725831 -41.58005743 66.4413561 -44.16771317 66.44125557 C-47.77818223 66.44106439 -51.38814446 66.42286282 -54.99853516 66.40063477 C-56.07393051 66.40521194 -57.14932587 66.40978912 -58.25730896 66.414505 C-59.72934029 66.40003326 -59.72934029 66.40003326 -61.23110962 66.38526917 C-62.08464838 66.38325784 -62.93818714 66.38124651 -63.81759071 66.37917423 C-66.50536118 65.91219798 -67.39027948 65.17309061 -69 63 C-69.51891371 59.51586512 -69.52994236 57.755325 -67.48573303 54.84172058 C-64.03659711 52.28619892 -60.92037535 52.43482753 -56.79077148 52.4699707 C-55.96595276 52.46123932 -55.14113403 52.45250793 -54.2913208 52.44351196 C-51.56769049 52.41913465 -48.84481929 52.42254685 -46.12109375 52.42578125 C-44.2282634 52.41333785 -42.3354446 52.39900411 -40.44264221 52.38285828 C-35.4608828 52.34480475 -30.47932225 52.32964009 -25.49743652 52.32006836 C-17.51963633 52.3003363 -9.54198801 52.24352032 -1.56434822 52.19130516 C1.22481998 52.17594147 4.01391276 52.16876436 6.80311584 52.16316223 C8.50879961 52.1561468 10.21448302 52.14904594 11.92016602 52.1418457 C12.69790878 52.14237442 13.47565155 52.14290314 14.27696228 52.14344788 C17.45140571 52.12561619 19.96563937 52.01145354 23 51 C24.09076394 45.97152015 24.09076394 45.97152015 22.75 41.125 C21.10021499 38.73824442 21.10021499 38.73824442 18 38 C12.06 37.67 6.12 37.34 0 37 C0 24.79 0 12.58 0 0 Z " fill="#D71920" transform="translate(157,157)"/>
<path d="M0 0 C0 51.48 0 102.96 0 156 C-5.94 159.3 -11.88 162.6 -18 166 C-21.84331346 168.21483257 -25.67784714 170.43728936 -29.5 172.6875 C-31.55437201 173.89116363 -33.60907123 175.09426893 -35.6640625 176.296875 C-36.7046582 176.90595703 -37.74525391 177.51503906 -38.81738281 178.14257812 C-44.15891119 181.25997211 -49.51651012 184.34937916 -54.875 187.4375 C-56.49220947 188.36973389 -56.49220947 188.36973389 -58.14208984 189.32080078 C-62.52463201 191.8464552 -66.90783923 194.37095429 -71.29101562 196.89550781 C-97.88945264 212.21699264 -97.88945264 212.21699264 -124.35546875 227.765625 C-125.37672852 228.37132324 -126.39798828 228.97702148 -127.45019531 229.60107422 C-129.40524202 230.76202301 -131.35906887 231.92502912 -133.31152344 233.09033203 C-134.17680664 233.60450684 -135.04208984 234.11868164 -135.93359375 234.6484375 C-136.69728271 235.10395996 -137.46097168 235.55948242 -138.24780273 236.02880859 C-140 237 -140 237 -141 237 C-141 171.33 -141 105.66 -141 38 C-123 33 -123 33 -119 33 C-119 84.48 -119 135.96 -119 189 C-87.32 173.16 -55.64 157.32 -23 141 C-22.67 96.12 -22.34 51.24 -22 5 C-4 0 -4 0 0 0 Z " fill="#FFFFFF" transform="translate(457,158)"/>
<path d="M0 0 C1.14297546 0.25706726 2.28595093 0.51413452 3.46356201 0.7789917 C7.21984181 1.62527471 10.97415702 2.47995488 14.72851562 3.3347168 C17.36126064 3.93025378 19.99441569 4.52396834 22.62756348 5.11772156 C28.84716336 6.52126327 35.06538537 7.93081137 41.28311396 9.34261721 C48.98250638 11.09055158 56.68362382 12.83083744 64.38476562 14.57104492 C72.27566873 16.35435057 80.16639723 18.13840416 88.05603027 19.92732239 C89.25835548 20.19979388 90.46068069 20.47226538 91.69944 20.75299358 C94.01681686 21.27855542 96.33399848 21.80497904 98.65096283 22.33235645 C103.68835786 23.47672946 108.7273083 24.60596238 113.78051758 25.67855835 C114.6276255 25.86000743 115.47473343 26.04145651 116.34751129 26.22840405 C117.88649863 26.55630808 119.42678736 26.87819193 120.96858978 27.19259357 C125.91260799 28.24927791 125.91260799 28.24927791 128.13476562 30.47143555 C116.25011818 34.28112621 104.28594526 37.72335169 92.25585938 41.04174805 C90.3542639 41.56850124 88.45274074 42.09551557 86.55128479 42.62277222 C81.56441196 44.00497392 76.57672694 45.38421977 71.58880615 46.76263428 C64.69396182 48.6684366 57.8000384 50.57756346 50.90640259 52.48773193 C47.02627343 53.56277646 43.14531706 54.63476169 39.26376343 55.70465088 C29.76283559 58.32747779 20.27904755 60.99706662 10.81884766 63.76342773 C8.14180179 64.54045594 5.46448934 65.31655959 2.78712654 66.09249496 C0.3019496 66.81831675 -2.17795392 67.560446 -4.65809631 68.30325317 C-6.16692861 68.74147676 -7.67598491 69.17893011 -9.18530273 69.61547852 C-9.84951925 69.82033749 -10.51373577 70.02519646 -11.19808006 70.23626328 C-18.39271981 72.27639046 -24.46719091 70.74677844 -31.50317383 68.73168945 C-32.77017624 68.3719957 -34.03717865 68.01230194 -35.34257507 67.64170837 C-36.72124943 67.24390025 -38.09989537 66.84599364 -39.47851562 66.44799805 C-40.94437326 66.02958684 -42.41038595 65.61171853 -43.87654114 65.1943512 C-47.01123145 64.30081704 -50.14484657 63.40364047 -53.27764893 62.50350952 C-58.2093636 61.08651122 -63.1432927 59.67734201 -68.07763672 58.26953125 C-73.17853808 56.81376779 -78.27925857 55.35738328 -83.37915039 53.89808655 C-95.13714705 50.53363598 -106.89954294 47.18502674 -118.66601562 43.8503418 C-119.44960009 43.62826805 -120.23318455 43.40619431 -121.04051399 43.17739105 C-124.8724202 42.09151411 -128.70441696 41.0059572 -132.53646851 39.92059326 C-138.98606911 38.09375771 -145.4350336 36.26467896 -151.88403893 34.43574333 C-154.88571571 33.58449681 -157.88743841 32.73341219 -160.88916016 31.88232422 C-161.8562088 31.60813156 -162.82325745 31.3339389 -163.8196106 31.05143738 C-164.49466644 30.86003677 -165.16972229 30.66863617 -165.86523438 30.47143555 C-162.51523 27.12143117 -157.88794272 26.82014353 -153.36523438 25.78393555 C-152.40875 25.54610352 -151.45226562 25.30827148 -150.46679688 25.06323242 C-149.51546875 24.84344727 -148.56414062 24.62366211 -147.58398438 24.3972168 C-146.29911133 24.09424683 -146.29911133 24.09424683 -144.98828125 23.78515625 C-136.66728243 22.94928356 -128.71822476 25.09397443 -120.77514648 27.35473633 C-119.71525009 27.64909576 -118.6553537 27.9434552 -117.56333923 28.24673462 C-115.27840508 28.88218772 -112.99447484 29.52125971 -110.71146965 30.16360855 C-107.0938741 31.18043771 -103.47321001 32.18556077 -99.85145569 33.18746948 C-89.56022684 36.03626024 -79.27411884 38.9031502 -68.99194336 41.78442383 C-62.68851128 43.55062143 -56.38043769 45.29964286 -50.06976509 47.03979111 C-47.67236458 47.70432779 -45.27664365 48.37495577 -42.88270378 49.05185318 C-39.53435479 49.99832857 -36.18102399 50.92469985 -32.82592773 51.84692383 C-31.84541443 52.12947021 -30.86490112 52.4120166 -29.85467529 52.703125 C-20.49315455 55.23343129 -13.16423103 53.81721635 -4.04077148 51.06298828 C-3.21040375 50.81900299 -2.38003601 50.5750177 -1.52450562 50.32363892 C1.18831689 49.524613 3.89782888 48.7149323 6.60742188 47.9050293 C8.50008354 47.3452885 10.3929447 46.78622183 12.28599548 46.22779846 C17.24451162 44.76315188 22.2002805 43.28941701 27.15551758 41.8137207 C32.22183082 40.30671718 37.29071007 38.80839692 42.359375 37.30932617 C52.28702406 34.37181643 62.21179019 31.42469123 72.13476562 28.47143555 C45.86960883 22.33134807 19.58789509 16.27459474 -6.73071289 10.36779785 C-10.72959499 9.46993088 -14.72805532 8.57018916 -18.7265625 7.6706543 C-26.4390658 5.9358549 -34.15199211 4.20294678 -41.86523438 2.47143555 C-38.91524406 -0.47855477 -35.31589744 -0.83068123 -31.36523438 -1.71606445 C-30.59953125 -1.90620117 -29.83382812 -2.09633789 -29.04492188 -2.29223633 C-19.10378426 -4.54478507 -9.76996758 -2.24047394 0 0 Z " fill="#FFFFFF" transform="translate(325.865234375,109.528564453125)"/>
<path d="M0 0 C1.06475555 -0.0159874 2.12951111 -0.03197479 3.22653198 -0.04844666 C4.37654694 -0.05380936 5.52656189 -0.05917206 6.71142578 -0.06469727 C8.4851506 -0.07823997 8.4851506 -0.07823997 10.29470825 -0.09205627 C12.79800885 -0.10657423 15.30134753 -0.11544933 17.8046875 -0.11914062 C21.63492774 -0.13103578 25.46355698 -0.18020926 29.29345703 -0.23071289 C31.72443874 -0.24017691 34.15543036 -0.24741205 36.58642578 -0.25219727 C37.73239227 -0.27172958 38.87835876 -0.2912619 40.05905151 -0.31138611 C48.91498589 -0.26113312 48.91498589 -0.26113312 52.04394531 2.67724609 C53.78173828 5.30639648 53.78173828 5.30639648 53.78173828 7.93139648 C52.70425615 10.49041654 51.96077118 11.61176423 49.78173828 13.30639648 C47.35987854 13.69407654 47.35987854 13.69407654 44.45581055 13.71044922 C43.36780655 13.72313339 42.27980255 13.73581757 41.15882874 13.74888611 C39.98380295 13.74595047 38.80877716 13.74301483 37.59814453 13.73999023 C35.78756813 13.74785301 35.78756813 13.74785301 33.94041443 13.75587463 C31.38582123 13.76230283 28.83119846 13.7609476 26.27661133 13.75244141 C22.36307139 13.74393741 18.45099307 13.77267519 14.53759766 13.80444336 C12.05778039 13.80605552 9.57796053 13.80547755 7.09814453 13.80249023 C5.3386422 13.8193412 5.3386422 13.8193412 3.54359436 13.83653259 C2.4524382 13.82715164 1.36128204 13.81777069 0.23706055 13.80810547 C-0.72207748 13.8079393 -1.68121552 13.80777313 -2.66941833 13.80760193 C-5.98874293 13.15488879 -7.2010617 11.98180725 -9.21826172 9.30639648 C-9.15576172 5.68139648 -9.15576172 5.68139648 -8.21826172 2.30639648 C-4.91297715 0.10287344 -3.85035424 0.04369528 0 0 Z " fill="#D71920" transform="translate(83.21826171875,292.693603515625)"/>
<path d="M0 0 C1.06475555 -0.0159874 2.12951111 -0.03197479 3.22653198 -0.04844666 C4.37654694 -0.05380936 5.52656189 -0.05917206 6.71142578 -0.06469727 C8.4851506 -0.07823997 8.4851506 -0.07823997 10.29470825 -0.09205627 C12.79800885 -0.10657423 15.30134753 -0.11544933 17.8046875 -0.11914062 C21.63492774 -0.13103578 25.46355698 -0.18020926 29.29345703 -0.23071289 C31.72443874 -0.24017691 34.15543036 -0.24741205 36.58642578 -0.25219727 C37.73239227 -0.27172958 38.87835876 -0.2912619 40.05905151 -0.31138611 C48.91498589 -0.26113312 48.91498589 -0.26113312 52.04394531 2.67724609 C53.78173828 5.30639648 53.78173828 5.30639648 53.78173828 7.93139648 C52.70425615 10.49041654 51.96077118 11.61176423 49.78173828 13.30639648 C47.35987854 13.69407654 47.35987854 13.69407654 44.45581055 13.71044922 C43.36780655 13.72313339 42.27980255 13.73581757 41.15882874 13.74888611 C39.98380295 13.74595047 38.80877716 13.74301483 37.59814453 13.73999023 C35.78756813 13.74785301 35.78756813 13.74785301 33.94041443 13.75587463 C31.38582123 13.76230283 28.83119846 13.7609476 26.27661133 13.75244141 C22.36307139 13.74393741 18.45099307 13.77267519 14.53759766 13.80444336 C12.05778039 13.80605552 9.57796053 13.80547755 7.09814453 13.80249023 C5.3386422 13.8193412 5.3386422 13.8193412 3.54359436 13.83653259 C2.4524382 13.82715164 1.36128204 13.81777069 0.23706055 13.80810547 C-0.72207748 13.8079393 -1.68121552 13.80777313 -2.66941833 13.80760193 C-5.98874293 13.15488879 -7.2010617 11.98180725 -9.21826172 9.30639648 C-9.15576172 5.68139648 -9.15576172 5.68139648 -8.21826172 2.30639648 C-4.91297715 0.10287344 -3.85035424 0.04369528 0 0 Z " fill="#D71920" transform="translate(52.21826171875,243.693603515625)"/>
<path d="M0 0 C1.08792847 -0.01591187 2.17585693 -0.03182373 3.29675293 -0.04821777 C4.46661743 -0.04841919 5.63648193 -0.04862061 6.84179688 -0.04882812 C8.04743286 -0.05644165 9.25306885 -0.06405518 10.49523926 -0.07189941 C13.04384286 -0.08270312 15.59249075 -0.08555245 18.14111328 -0.08105469 C22.04599523 -0.08008175 25.94891711 -0.1217179 29.85351562 -0.16601562 C32.32877194 -0.17122197 34.80403509 -0.17391083 37.27929688 -0.17382812 C38.44916138 -0.19022339 39.61902588 -0.20661865 40.82434082 -0.22351074 C48.89155937 -0.1545091 48.89155937 -0.1545091 52.32421875 2.79296875 C53.56054688 5.41992188 53.56054688 5.41992188 53.62304688 8.04492188 C52.20247893 11.22030904 50.64540805 11.88518194 47.56054688 13.41992188 C45.0120697 13.79414368 45.0120697 13.79414368 42.28295898 13.79223633 C40.74127296 13.80157951 40.74127296 13.80157951 39.16844177 13.81111145 C38.06935989 13.8019017 36.97027802 13.79269196 35.83789062 13.78320312 C34.13144127 13.78395088 34.13144127 13.78395088 32.39051819 13.78471375 C29.98908743 13.78237625 27.58765408 13.77266694 25.1862793 13.75610352 C21.50807839 13.73248629 17.83060135 13.73554849 14.15234375 13.7421875 C11.81835505 13.73661139 9.4843694 13.72950193 7.15039062 13.72070312 C6.04928452 13.72161453 4.94817841 13.72252594 3.81370544 13.72346497 C2.78906693 13.71393295 1.76442841 13.70440094 0.70874023 13.69458008 C-0.19107071 13.68997269 -1.09088165 13.6853653 -2.01795959 13.68061829 C-4.61963621 13.40052348 -6.23947271 12.82002512 -8.43945312 11.41992188 C-9.85387186 8.5910844 -9.75845645 6.54615443 -9.43945312 3.41992188 C-6.43528656 0.44151966 -4.14856443 0.03653044 0 0 Z " fill="#D71920" transform="translate(97.439453125,177.580078125)"/>
</svg>
