<svg width="48" height="48" viewBox="0 0 48 48" fill="none" xmlns="http://www.w3.org/2000/svg">
<path d="M22.5 41.5C22.5 42.3284 23.1716 43 24 43C24.8284 43 25.5 42.3284 25.5 41.5V16.1213L33.4393 24.0607C34.0251 24.6464 34.9749 24.6464 35.5607 24.0607C36.1464 23.4749 36.1464 22.5251 35.5607 21.9393L25.0607 11.4393C24.4749 10.8536 23.5251 10.8536 22.9393 11.4393L12.4393 21.9393C11.8536 22.5251 11.8536 23.4749 12.4393 24.0607C13.0251 24.6464 13.9749 24.6464 14.5607 24.0607L22.5 16.1213V41.5ZM10.5 8C9.67157 8 9 7.32843 9 6.5C9 5.67157 9.67157 5 10.5 5H37.5C38.3284 5 39 5.67157 39 6.5C39 7.32843 38.3284 8 37.5 8H10.5Z" fill="white"/>
</svg>
