<svg width="16" height="16" viewBox="0 0 16 16" fill="none" xmlns="http://www.w3.org/2000/svg">
  <path d="M11.5 1C11.6326 1 11.7598 1.05268 11.8536 1.14645C11.9473 1.24021 12 1.36739 12 1.5V2.5C12 3.03043 12.2107 3.53914 12.5858 3.91421C12.9609 4.28929 13.4696 4.5 14 4.5C14.1326 4.5 14.2598 4.55268 14.3536 4.64645C14.4473 4.74021 14.5 4.86739 14.5 5V6C14.5 6.39782 14.342 6.77936 14.0607 7.06066C13.7794 7.34196 13.3978 7.5 13 7.5H9.5L8.5 15L7.5 15L6.5 7.5H3C2.60218 7.5 2.22064 7.34196 1.93934 7.06066C1.65804 6.77936 1.5 6.39782 1.5 6V5C1.5 4.86739 1.55268 4.74021 1.64645 4.64645C1.74021 4.55268 1.86739 4.5 2 4.5C2.53043 4.5 3.03914 4.28929 3.41421 3.91421C3.78929 3.53914 4 3.03043 4 2.5V1.5C4 1.36739 4.05268 1.24021 4.14645 1.14645C4.24021 1.05268 4.36739 1 4.5 1H11.5Z" fill="currentColor"/>
</svg>
