<svg width="20" height="20" viewBox="0 0 20 20" fill="none" xmlns="http://www.w3.org/2000/svg">
  <path d="M17.5 9.5C17.5 10.163 17.2366 10.7989 16.7678 11.2678C16.2989 11.7366 15.663 12 15 12H14.5V13.5C14.5 14.163 14.2366 14.7989 13.7678 15.2678C13.2989 15.7366 12.663 16 12 16H11.5V17.5C11.5 17.8978 11.342 18.2794 11.0607 18.5607C10.7794 18.842 10.3978 19 10 19C9.60218 19 9.22064 18.842 8.93934 18.5607C8.65804 18.2794 8.5 17.8978 8.5 17.5V16H8C7.33696 16 6.70107 15.7366 6.23223 15.2678C5.76339 14.7989 5.5 14.163 5.5 13.5V12H5C4.33696 12 3.70107 11.7366 3.23223 11.2678C2.76339 10.7989 2.5 10.163 2.5 9.5V8C2.5 7.33696 2.76339 6.70107 3.23223 6.23223C3.70107 5.76339 4.33696 5.5 5 5.5H5.5V5C5.5 4.33696 5.76339 3.70107 6.23223 3.23223C6.70107 2.76339 7.33696 2.5 8 2.5H8.5V2.5C8.5 2.10218 8.65804 1.72064 8.93934 1.43934C9.22064 1.15804 9.60218 1 10 1C10.3978 1 10.7794 1.15804 11.0607 1.43934C11.342 1.72064 11.5 2.10218 11.5 2.5V2.5H12C12.663 2.5 13.2989 2.76339 13.7678 3.23223C14.2366 3.70107 14.5 4.33696 14.5 5V5.5H15C15.663 5.5 16.2989 5.76339 16.7678 6.23223C17.2366 6.70107 17.5 7.33696 17.5 8V9.5ZM16 8C16 7.73478 15.8946 7.48043 15.7071 7.29289C15.5196 7.10536 15.2652 7 15 7H14C13.7348 7 13.4804 6.89464 13.2929 6.70711C13.1054 6.51957 13 6.26522 13 6V5C13 4.73478 12.8946 4.48043 12.7071 4.29289C12.5196 4.10536 12.2652 4 12 4H8C7.73478 4 7.48043 4.10536 7.29289 4.29289C7.10536 4.48043 7 4.73478 7 5V6C7 6.26522 6.89464 6.51957 6.70711 6.70711C6.51957 6.89464 6.26522 7 6 7H5C4.73478 7 4.48043 7.10536 4.29289 7.29289C4.10536 7.48043 4 7.73478 4 8V9.5C4 9.76522 4.10536 10.0196 4.29289 10.2071C4.48043 10.3946 4.73478 10.5 5 10.5H6C6.26522 10.5 6.51957 10.6054 6.70711 10.7929C6.89464 10.9804 7 11.2348 7 11.5V13.5C7 13.7652 7.10536 14.0196 7.29289 14.2071C7.48043 14.3946 7.73478 14.5 8 14.5H12C12.2652 14.5 12.5196 14.3946 12.7071 14.2071C12.8946 14.0196 13 13.7652 13 13.5V11.5C13 11.2348 13.1054 10.9804 13.2929 10.7929C13.4804 10.6054 13.7348 10.5 14 10.5H15C15.2652 10.5 15.5196 10.3946 15.7071 10.2071C15.8946 10.0196 16 9.76522 16 9.5V8Z" fill="currentColor"/>
</svg>
