<svg width="16" height="16" viewBox="0 0 16 16" xmlns="http://www.w3.org/2000/svg" aria-hidden="true"><path fill="currentColor" d="M8 1.5a.5.5 0 0 1 .47.33l1.59 4.38 4.63.07a.5.5 0 0 1 .3.9l-3.7 2.82 1.39 4.46a.5.5 0 0 1-.77.55L8 12.14l-3.91 2.87a.5.5 0 0 1-.77-.55l1.4-4.46-3.7-2.82a.5.5 0 0 1 .29-.9l4.63-.07 1.59-4.38A.5.5 0 0 1 8 1.5Zm0 1.54L6.68 6.69a.5.5 0 0 1-.44.31l-3.64.06 2.9 2.21a.5.5 0 0 1 .17.52l-1.09 3.5 3.07-2.25a.5.5 0 0 1 .6 0l3.07 2.25-1.1-3.5a.5.5 0 0 1 .18-.52l2.9-2.21-3.64-.06a.5.5 0 0 1-.44-.31L8 3.04Z"/></svg>